<?xml version="1.0" standalone="no"?>
<!DOCTYPE svg PUBLIC "-//W3C//DTD SVG 20010904//EN"
 "http://www.w3.org/TR/2001/REC-SVG-20010904/DTD/svg10.dtd">
<svg version="1.0" xmlns="http://www.w3.org/2000/svg"
 width="460.000000pt" height="80.000000pt" viewBox="0 0 460.000000 80.000000"
 preserveAspectRatio="xMidYMid meet">

<g transform="translate(0.000000,80.000000) scale(0.100000,-0.100000)"
fill="#000000" stroke="none">
<path d="M0 400 l0 -400 2300 0 2300 0 0 400 0 400 -2300 0 -2300 0 0 -400z
m442 275 c56 -20 103 -67 117 -120 15 -56 16 -55 -42 -55 -50 0 -54 2 -68 32
-22 49 -58 70 -119 70 -36 0 -60 -6 -79 -19 -58 -44 -25 -99 75 -127 116 -32
139 -41 179 -71 139 -106 41 -275 -159 -275 -143 0 -236 63 -236 160 0 30 1
30 53 30 51 0 53 -1 62 -32 23 -77 170 -96 222 -29 35 46 -5 94 -100 122 -169
49 -210 75 -228 141 -21 78 34 157 123 178 56 13 152 11 200 -5z m540 -9 c82
-35 120 -145 84 -241 -32 -84 -94 -115 -228 -115 l-78 0 0 -98 0 -98 -42 2
c-24 1 -49 3 -56 3 -10 1 -12 33 -10 142 l3 142 127 1 c119 1 128 2 152 25 21
20 26 34 26 72 0 39 -4 51 -26 68 -24 19 -40 21 -155 21 l-129 0 0 44 c0 34 4
45 17 48 9 2 75 2 147 1 92 -1 142 -7 168 -17z m544 9 c59 -17 127 -73 153
-124 32 -61 45 -151 32 -211 -16 -76 -37 -114 -86 -159 -58 -53 -132 -75 -234
-69 -90 6 -141 28 -194 87 -42 47 -61 88 -71 154 l-7 47 55 0 c58 0 56 2 71
-65 33 -148 275 -168 341 -29 24 51 23 152 -3 196 -24 42 -76 77 -125 84 l-38
7 0 48 c0 47 1 49 28 49 16 0 51 -7 78 -15z m384 -15 c12 -49 2 -60 -56 -60
l-54 0 0 39 c0 44 5 47 63 46 35 -1 42 -5 47 -25z m219 16 c8 -6 11 -61 11
-197 -2 -211 7 -190 -77 -192 l-38 0 -3 196 c-2 180 -1 196 15 200 25 6 78 2
92 -7z m719 -16 c49 -27 77 -67 87 -122 l7 -38 -53 0 c-53 1 -54 1 -72 39 -21
45 -54 63 -122 63 -78 0 -123 -48 -91 -97 12 -18 44 -33 131 -60 128 -40 176
-72 195 -131 26 -76 -22 -159 -107 -188 -94 -32 -236 -14 -292 37 -28 26 -51
76 -51 112 0 24 3 25 55 25 44 0 55 -3 55 -16 0 -29 39 -72 73 -80 112 -25
200 36 150 104 -15 21 -46 36 -129 63 -60 20 -122 44 -137 54 -38 24 -57 65
-57 119 0 56 40 107 103 130 66 24 200 17 255 -14z m458 17 c3 -3 45 -106 94
-229 48 -122 97 -247 109 -275 23 -59 28 -55 -58 -57 -46 -1 -49 1 -59 29 -38
110 -146 411 -149 414 -7 10 -18 -17 -88 -226 l-74 -218 -46 0 c-80 -1 -81
-21 15 245 23 63 58 161 78 217 21 59 42 104 51 105 22 5 122 0 127 -5z m704
-42 l0 -55 -210 0 -210 0 0 50 0 50 208 3 c114 1 208 3 210 5 1 1 2 -23 2 -53z
m485 -5 l2 -50 -214 0 -213 0 0 50 0 50 208 2 c114 2 209 2 211 0 3 -1 5 -25
6 -52z m-2585 -310 c0 -222 6 -202 -65 -202 -14 0 -29 0 -35 1 -6 1 -10 75
-10 201 l0 200 55 0 55 0 0 -200z m2056 120 c10 0 14 -13 14 -45 l0 -45 -140
0 -140 0 0 -117 0 -118 -55 0 -55 0 0 162 0 163 168 2 c92 2 173 2 180 1 8 -2
20 -3 28 -3z m529 -40 l0 -50 -212 0 -213 0 0 50 0 50 213 0 212 0 0 -50z
m-2055 -232 l0 -53 -193 2 c-105 1 -200 2 -209 3 -15 0 -18 9 -18 50 l0 50
210 0 210 0 0 -52z m2055 2 c-1 -28 -4 -50 -8 -50 -4 0 -99 0 -212 0 l-205 0
0 50 0 50 213 0 214 0 -2 -50z"/>
</g>
</svg>
